<?xml version="1.0" encoding="UTF-8" standalone="no"?>
<svg
   viewBox="0 0 210 210"
   aria-label="PIRATEN Rhein-Erft-Kreis"
   version="1.1"
   id="svg15"
   sodipodi:docname="logo.svg"
   width="210"
   height="210"
   inkscape:version="1.3.2 (091e20ef0f, 2023-11-25)"
   xmlns:inkscape="http://www.inkscape.org/namespaces/inkscape"
   xmlns:sodipodi="http://sodipodi.sourceforge.net/DTD/sodipodi-0.dtd"
   xmlns="http://www.w3.org/2000/svg"
   xmlns:svg="http://www.w3.org/2000/svg">
  <defs
     id="defs15" />
  <sodipodi:namedview
     id="namedview15"
     pagecolor="#ffffff"
     bordercolor="#999999"
     borderopacity="1"
     inkscape:showpageshadow="2"
     inkscape:pageopacity="0"
     inkscape:pagecheckerboard="true"
     inkscape:deskcolor="#d1d1d1"
     inkscape:zoom="3.5299661"
     inkscape:cx="107.7914"
     inkscape:cy="127.90491"
     inkscape:window-width="2560"
     inkscape:window-height="1371"
     inkscape:window-x="0"
     inkscape:window-y="0"
     inkscape:window-maximized="1"
     inkscape:current-layer="svg15" />
  <g
     id="g15"
     transform="scale(0.99212606,0.99211551)">
    <path
       d="M 211.66665,105.83404 A 105.83294,105.83294 0 0 1 106.46913,211.66699 105.83294,105.83294 0 0 1 0.00761602,107.10261 105.83294,105.83294 0 0 1 103.93199,0.01709844 105.83294,105.83294 0 0 1 211.63693,103.29919"
       style="opacity:1;fill:#ffffff;fill-opacity:1;fill-rule:nonzero;stroke:none;stroke-width:2.50121;stroke-miterlimit:4;stroke-dasharray:none;paint-order:normal"
       id="path3" />
    <path
       style="fill:#4cbcd0;fill-opacity:1;stroke:none;stroke-width:0.959745px;stroke-linecap:butt;stroke-linejoin:miter;stroke-opacity:1"
       d="m 139.29878,115.40291 c 3.45917,10.41108 13.23386,38.07089 -0.68772,81.64595 -24.78387,7.95076 -45.213048,6.7495 -63.612446,0.17099 49.254956,-24.81152 62.864006,-73.37729 64.300166,-81.8167 z"
       id="path4" />
    <path
       d="m 135.29509,89.307775 c 9.86275,4.881625 36.47828,17.437295 57.77056,57.952845 -11.77134,23.12354 -27.00741,36.72562 -44.65135,45.10746 16.96444,-52.29695 -8.10849,-96.104412 -13.11921,-103.060305 z"
       style="fill:#5666a4;fill-opacity:1;stroke:none;stroke-width:0.959745px;stroke-linecap:butt;stroke-linejoin:miter;stroke-opacity:1"
       id="path5" />
    <path
       style="fill:#1ea12d;fill-opacity:1;stroke:none;stroke-width:0.959745px;stroke-linecap:butt;stroke-linejoin:miter;stroke-opacity:1"
       d="m 115.26045,73.057049 c 10.48153,-3.368249 38.33486,-12.898855 82.0012,1.276399 7.80611,24.731314 6.45147,45.060742 -0.28907,63.330582 C 172.40836,88.448494 123.72671,74.547786 115.26045,73.057049 Z"
       id="path6" />
    <path
       d="M 89.255474,75.117349 C 94.442536,65.443931 107.82057,39.321582 149.11653,19.307405 171.99181,31.692088 185.20656,47.248983 193.1104,65.050655 141.09537,46.651243 96.384509,70.332539 89.255474,75.117349 Z"
       style="fill:#8fbd1f;fill-opacity:1;stroke:none;stroke-width:0.959745px;stroke-linecap:butt;stroke-linejoin:miter;stroke-opacity:1"
       id="path7" />
    <path
       style="fill:#4cbcd0;fill-opacity:1;stroke:none;stroke-width:0.959745px;stroke-linecap:butt;stroke-linejoin:miter;stroke-opacity:1"
       d="M 72.66186,95.951312 C 69.297515,85.509886 59.774154,57.762899 74.090521,14.31524 98.945746,6.5877279 119.36307,7.9727412 137.702,14.716463 88.223771,39.083642 74.174219,87.525152 72.66186,95.951071 Z"
       id="path8" />
    <path
       d="M 76.094905,122.66755 C 66.273765,117.70356 39.765395,104.9244 18.817097,64.231352 30.78389,41.207522 46.134864,27.733806 63.849201,19.500551 46.441835,71.65301 71.142728,115.66975 76.094421,122.66731 Z"
       style="fill:#5666a4;fill-opacity:1;stroke:none;stroke-width:0.959745px;stroke-linecap:butt;stroke-linejoin:miter;stroke-opacity:1"
       id="path9" />
    <path
       style="fill:#1ea12d;fill-opacity:1;stroke:none;stroke-width:0.959745px;stroke-linecap:butt;stroke-linejoin:miter;stroke-opacity:1"
       d="M 96.634634,139.01774 C 86.177055,142.45872 58.391453,152.18319 14.626663,138.3121 6.6468663,113.6357 7.8585434,93.297124 14.47088,74.98104 c 24.90941,49.04358 73.687578,62.60472 82.163754,64.0367 z"
       id="path10" />
    <path
       d="m 122.97706,135.89586 c -4.9933,9.77384 -17.84883,36.15532 -58.738158,56.98038 -23.117173,-11.93072 -36.639383,-27.22391 -44.895914,-44.86615 52.37135,17.36914 96.601802,-7.18974 103.634072,-12.11423 z"
       style="fill:#8fbd1f;fill-opacity:1;stroke:none;stroke-width:0.959745px;stroke-linecap:butt;stroke-linejoin:miter;stroke-opacity:1"
       id="path11" />
    <path
       d="M 178.4009,105.83505 A 72.571292,72.251293 0 0 1 106.26389,178.08177 72.571292,72.251293 0 0 1 33.265173,106.69905 72.571292,72.251293 0 0 1 104.52675,33.595188 72.571292,72.251293 0 0 1 178.38033,104.10248"
       style="opacity:1;fill:#ff8700;fill-opacity:1;fill-rule:nonzero;stroke:none;stroke-width:3.99142;stroke-linecap:round;stroke-miterlimit:4;stroke-dasharray:none;stroke-opacity:1;paint-order:normal"
       id="path12" />
    <path
       d="M 164.59521,105.83505 A 58.765604,58.870747 0 0 1 106.18389,164.70351 58.765604,58.870747 0 0 1 47.068575,106.53905 58.765604,58.870747 0 0 1 104.77361,46.973449 58.765604,58.870747 0 0 1 164.5815,104.42248"
       style="opacity:1;fill:#ffffff;fill-opacity:1;fill-rule:nonzero;stroke-width:0.912257;paint-order:normal"
       id="path13" />
    <path
       style="opacity:1;fill:#000000;stroke:none;stroke-width:0.250825px;stroke-linecap:butt;stroke-linejoin:miter;stroke-opacity:1"
       d="m 83.315364,156.07953 c -17.716538,-22.67196 12.495977,-29.85366 21.350816,-30.44566 63.57245,-6.59199 50.12105,-51.055902 13.74855,-56.098178 -11.86969,-1.645711 -28.292521,-1.65714 -43.330207,5.684561 13.988545,-0.763427 31.618227,9.522268 30.868517,22.21253 -0.29715,18.146247 -15.250261,21.071957 -24.438815,28.450227 -8.228556,6.05028 -11.931406,21.67082 1.801139,30.19423 z"
       id="path14" />
    <path
       style="opacity:1;fill:#000000;fill-opacity:1;fill-rule:nonzero;stroke:none;stroke-width:4.42669;stroke-linecap:round;stroke-miterlimit:4;stroke-dasharray:none;stroke-opacity:1;paint-order:fill markers stroke"
       d="m 79.946228,61.745992 h 6.457131 v 66.882158 h -6.457131 z"
       id="path15" />
  </g>
</svg>
