<svg xmlns="http://www.w3.org/2000/svg" viewBox="0 0 635 224.896" aria-label="PIRATEN Rhein-Erft-Kreis"><g style="fill:#000;fill-opacity:1"><g style="font-style:normal;font-variant:normal;font-weight:400;font-stretch:normal;font-size:95.04805756px;line-height:1.25;font-family:'Open Sans';-inkscape-font-specification:'Open Sans';text-align:center;letter-spacing:1.31509674px;word-spacing:0;text-anchor:middle;fill:currentColor;fill-opacity:1;stroke:none;stroke-width:3.55031753"><path d="M743.522 90.66q-.095.666-.095 1.141v.855q-1.14 10.93-10.17 18.06-7.889 6.083-18.344 6.083-1.806 0-4.372-.095-2.567-.095-5.893-.38v25.092h-9.695V65.188q7.984-.666 12.926-.951 4.943-.38 6.844-.38 5.703-.285 10.55 1.14 4.942 1.331 8.935 4.468 2.186 1.806 3.706 3.516 1.521 1.616 2.472 3.137h-.095q1.52 2.281 2.186 5.133.76 2.756.95 5.893 0 .95.095 1.14zm-9.885-.095q.095-1.52 0-2.186-.19-3.612-1.616-6.368-1.33-2.851-3.516-4.752-2.662-1.996-5.798-2.947-3.137-1.045-6.749-.855-2.47 0-5.132.19-2.567.095-6.178.38v18.154q-.19 1.046 0 1.996v12.451q4.562.38 7.413.57 2.852.096 3.897.096 5.893.285 11.501-4.372 2.471-1.901 3.897-4.563 1.426-2.661 1.996-5.798.095-.475.095-1.14.095-.76.19-1.046zM768.5 65.092v76.134h-9.79V65.092ZM834.217 88.474q-.76 9.79-5.323 14.923-4.467 5.132-13.307 7.033 3.422 3.422 7.224 7.32 3.802 3.896 7.509 7.888 3.801 3.992 7.318 7.89 3.612 3.896 6.749 7.318H831.46q-7.224-7.89-14.447-15.208-7.129-7.319-14.543-14.257H801.235q-.285-.095-.76-.095-.476-.095-1.426-.19v30.035h-9.695V65.568q5.703-.76 10.075-1.046 4.467-.285 7.604-.19 15.017.475 21.766 7.509 5.322 5.703 5.418 16.633zm-35.168 13.022q.76.095 1.52.095.76-.095 1.331 0h.19q.76-.19 1.616 0 4.562-.095 8.46-.665 3.991-.666 6.178-1.901 2.756-1.521 4.277-4.183 1.52-2.756 1.615-6.843 0-6.178-3.136-9.22-4.372-4.277-15.873-4.657-1.426-.095-2.852 0-1.425 0-3.326.19zM895.675 116.133h-24.047q-2.186 5.988-4.467 12.547-2.281 6.558-4.372 12.45h-10.266l26.709-75.942h8.364l27.279 75.943H904.61zm-3.517-9.79q-1.235-3.421-2.28-6.083-.951-2.756-1.997-5.417-.95-2.757-1.996-5.608-1.045-2.947-2.471-6.844-1.046 3.042-2.091 5.893-1.046 2.852-2.091 5.798-.95 2.852-2.091 5.893-1.046 2.947-2.186 6.368zM964.565 74.882h-18.344v66.249h-9.79V74.882h-18.344v-9.79h46.478zM990.16 95.128h30.985v9.695H990.16v26.708h30.89v9.6h-40.68V65.188h40.775v9.79H990.16zM1091.026 64.997l-.095 76.039h-8.555l-34.407-55.508v55.508h-9.695V64.997h8.554l34.503 55.604V64.997Z" style="font-style:normal;font-variant:normal;font-weight:700;font-stretch:normal;font-family:Aaargh;-inkscape-font-specification:'Aaargh Bold';text-align:start;letter-spacing:9.2558651px;text-anchor:start;fill:currentColor;fill-opacity:1;stroke-width:3.55031753" transform="translate(-461.89 -9.8)"/></g><g style="font-style:normal;font-variant:normal;font-weight:400;font-stretch:normal;font-size:25.39999962px;line-height:1.25;font-family:'Open Sans';-inkscape-font-specification:'Open Sans';text-align:center;letter-spacing:.98109657px;word-spacing:0;text-anchor:middle;fill:currentColor;fill-opacity:1;stroke:none;stroke-width:2.64862967"><path d="M-605.663-1440.252q-.203 2.616-1.422 3.988-1.194 1.372-3.556 1.88.914.914 1.93 1.955 1.016 1.042 2.007 2.109 1.016 1.066 1.955 2.108.966 1.041 1.804 1.956h-3.455q-1.93-2.109-3.86-4.064-1.905-1.956-3.887-3.81h-.33q-.076-.025-.203-.025-.127-.025-.381-.051v8.026h-2.59v-20.193q1.523-.203 2.692-.28 1.193-.075 2.032-.05 4.013.127 5.816 2.006 1.423 1.524 1.448 4.445zm-9.398 3.48q.203.025.406.025.204-.025.356 0h.05q.204-.051.433 0 1.219-.025 2.26-.178 1.067-.178 1.651-.508.737-.406 1.143-1.117.407-.737.432-1.83 0-1.65-.838-2.463-1.169-1.143-4.242-1.245-.381-.025-.762 0-.381 0-.889.051zM-584.76-1446.45v20.27h-2.591v-9.703h-8.103v9.703h-2.59v-20.27h2.59v7.976h8.103v-7.975zM-573.003-1438.474h8.28v2.591h-8.28v7.137h8.255v2.566h-10.871v-20.295h10.897v2.616h-8.28zM-553.387-1446.5v20.345h-2.616v-20.345zM-529.543-1446.526l-.025 20.32h-2.286l-9.195-14.833v14.833h-2.59v-20.32h2.285l9.22 14.86v-14.86zM-511.587-1432.886h-7.417v-2.489h7.417zM-499.4-1438.474h8.28v2.591h-8.28v7.137h8.255v2.566h-10.872v-20.295h10.897v2.616h-8.28zM-471.12-1440.252q-.203 2.616-1.422 3.988-1.194 1.372-3.556 1.88.914.914 1.93 1.955 1.016 1.042 2.007 2.109 1.016 1.066 1.955 2.108.966 1.041 1.804 1.956h-3.455q-1.93-2.109-3.86-4.064-1.905-1.956-3.887-3.81h-.33q-.076-.025-.203-.025-.127-.025-.381-.051v8.026h-2.59v-20.193q1.523-.203 2.692-.28 1.193-.075 2.032-.05 4.013.127 5.816 2.006 1.423 1.524 1.448 4.445zm-9.398 3.48q.203.025.406.025.204-.025.356 0h.05q.204-.051.433 0 1.219-.025 2.26-.178 1.067-.178 1.651-.508.737-.406 1.143-1.117.407-.737.432-1.83 0-1.65-.838-2.463-1.169-1.143-4.242-1.245-.381-.025-.762 0-.381 0-.889.051zM-459.696-1438.474h8.28v2.591h-8.28v9.703h-2.617v-20.295h10.897v2.616h-8.28zM-433.064-1443.884h-4.903v17.704h-2.616v-17.704h-4.902v-2.616h12.42zM-416.695-1432.886h-7.417v-2.489h7.417zM-402.68-1437.178q2.49 2.311 5.157 5.08 2.667 2.743 5.512 5.918h-3.455q-2.235-2.439-4.394-4.623-2.134-2.21-4.293-4.166v8.789h-2.59v-20.295h2.59v7.138q1.982-1.778 4.014-3.582 2.032-1.803 4.013-3.556h3.911zM-373.757-1440.252q-.203 2.616-1.422 3.988-1.194 1.372-3.556 1.88.914.914 1.93 1.955 1.016 1.042 2.007 2.109 1.016 1.066 1.956 2.108.965 1.041 1.803 1.956h-3.454q-1.93-2.109-3.861-4.064-1.905-1.956-3.886-3.81H-382.571q-.076-.025-.203-.025-.127-.025-.38-.051v8.026h-2.592v-20.193q1.524-.203 2.693-.28 1.194-.075 2.032-.05 4.013.127 5.816 2.006 1.423 1.524 1.448 4.445zm-9.398 3.48q.203.025.407.025.203-.025.355 0h.051q.203-.051.432 0 1.219-.025 2.26-.178 1.067-.178 1.651-.508.737-.406 1.143-1.117.407-.737.432-1.83 0-1.65-.838-2.463-1.168-1.143-4.242-1.245-.38-.025-.762 0-.38 0-.889.051zM-362.333-1438.474h8.28v2.591h-8.28v7.137h8.255v2.566h-10.871v-20.295h10.896v2.616h-8.28zM-343.173-1446.5v20.345h-2.616v-20.345zM-323.88-1426.993q-1.6 1.041-3.784 1.041-.432 0-.788-.025-.33-.025-.66-.076-1.067-.228-2.032-.66-.965-.457-1.804-1.118v-2.946q1.372.914 2.515 1.499 1.168.558 2.057.736l-.025-.025q.305.051.559.102.254.025.457.025 2.49 0 3.023-2.54l-.026.05q.026-.126.026-.228.025-.127.025-.203 0-.914-1.092-2.007-.28-.279-.965-.812-.66-.534-1.728-1.321-1.397-1.016-2.159-1.6-.762-.585-.914-.712-1.676-1.6-1.676-3.556 0-.228.025-.482t.102-.559v.025q.508-2.362 2.184-3.48.66-.482 1.473-.686.813-.228 1.727-.228.762 0 1.575.178 1.55.304 3.226 1.549v3.15q-1.168-.991-2.108-1.575-.915-.584-1.6-.711-.28-.051-.56-.076-.253-.051-.533-.051-.889 0-1.549.431h.025q-1.016.66-1.27 2.058l-.05.305v.254q0 .533.508 1.117.355.356.965.915.635.533 1.6 1.244 1.6 1.169 2.616 2.032 1.042.838 1.55 1.397 1.295 1.346 1.295 2.972 0 .33-.05.635-.026.305-.077.66-.38 2.312-2.083 3.328z" style="font-style:normal;font-variant:normal;font-weight:700;font-stretch:normal;font-family:Aaargh;-inkscape-font-specification:'Aaargh Bold';text-align:start;letter-spacing:6.90511751px;text-anchor:start;fill:currentColor;fill-opacity:1;stroke-width:2.64862967" transform="matrix(1.34044 0 0 1.34044 1061.116 2084.746)"/></g></g><path d="M-908.596-842.889a46.302 46.302 0 0 1-46.024 46.302 46.302 46.302 0 0 1-46.577-45.747 46.302 46.302 0 0 1 45.467-46.85 46.302 46.302 0 0 1 47.121 45.186" style="opacity:1;fill:#fff;fill-opacity:1;fill-rule:nonzero;stroke:none;stroke-width:1.09428084;stroke-miterlimit:4;stroke-dasharray:none;paint-order:normal" transform="matrix(2.28571 0 0 2.28571 2293.776 2040.282)"/><path style="fill:#4cbcd0;fill-opacity:1;stroke:none;stroke-width:3.97632599px;stroke-linecap:butt;stroke-linejoin:miter;stroke-opacity:1" d="M387.541 609.7c14.3 43.23 54.708 158.082-2.843 339.019-102.455 33.014-186.908 28.026-262.97.71 203.617-103.025 259.876-304.685 265.813-339.728Z" transform="matrix(.2419 0 0 .24083 50.875 -23.583)"/><path d="M370.99 501.345c40.772 20.27 150.799 72.405 238.82 240.638-48.662 96.016-111.647 152.496-184.586 187.3 70.13-217.153-33.52-399.055-54.234-427.938z" style="fill:#5666a4;fill-opacity:1;stroke:none;stroke-width:3.97632599px;stroke-linecap:butt;stroke-linejoin:miter;stroke-opacity:1" transform="matrix(.2419 0 0 .24083 50.875 -23.583)"/><path style="fill:#1ea12d;fill-opacity:1;stroke:none;stroke-width:3.97632599px;stroke-linecap:butt;stroke-linejoin:miter;stroke-opacity:1" d="M288.168 433.867c43.33-13.986 158.474-53.56 338.988 5.3 32.27 102.692 26.67 187.106-1.195 262.968-101.547-204.358-302.794-262.078-337.793-268.268z" transform="matrix(.2419 0 0 .24083 50.875 -23.583)"/><path d="M180.665 442.422c21.443-40.167 76.747-148.635 247.462-231.74 94.565 51.425 149.194 116.022 181.868 189.94-215.027-76.4-399.859 21.932-429.33 41.8z" style="fill:#8fbd1f;fill-opacity:1;stroke:none;stroke-width:3.97632599px;stroke-linecap:butt;stroke-linejoin:miter;stroke-opacity:1" transform="matrix(.2419 0 0 .24083 50.875 -23.583)"/><path style="fill:#4cbcd0;fill-opacity:1;stroke:none;stroke-width:3.97632599px;stroke-linecap:butt;stroke-linejoin:miter;stroke-opacity:1" d="M112.068 528.931c-13.908-43.356-53.277-158.57 5.906-338.978 102.75-32.087 187.154-26.336 262.966 1.666C176.4 292.799 118.32 493.943 112.068 528.93Z" transform="matrix(.2419 0 0 .24083 50.875 -23.583)"/><path d="M126.26 639.865C85.66 619.253-23.924 566.19-110.523 397.22c49.47-95.602 112.93-151.549 186.16-185.736-71.961 216.553 30.151 399.324 50.621 428.38Z" style="fill:#5666a4;fill-opacity:1;stroke:none;stroke-width:3.97632599px;stroke-linecap:butt;stroke-linejoin:miter;stroke-opacity:1" transform="matrix(.2419 0 0 .24083 50.875 -23.583)"/><path style="fill:#1ea12d;fill-opacity:1;stroke:none;stroke-width:3.97632599px;stroke-linecap:butt;stroke-linejoin:miter;stroke-opacity:1" d="M211.17 707.756c-43.231 14.288-158.095 54.667-339.016-2.93-32.988-102.464-27.979-186.916-.644-262.97C-25.516 645.5 176.13 701.81 211.17 707.756z" transform="matrix(.2419 0 0 .24083 50.875 -23.583)"/><path d="M320.068 694.793c-20.642 40.584-73.786 150.128-242.82 236.6-95.565-49.54-151.465-113.042-185.597-186.298 216.5 72.122 399.346-29.854 428.417-50.302z" style="fill:#8fbd1f;fill-opacity:1;stroke:none;stroke-width:3.97632599px;stroke-linecap:butt;stroke-linejoin:miter;stroke-opacity:1" transform="matrix(.2419 0 0 .24083 50.875 -23.583)"/><path d="M-67.564-611.812a31.75 31.61 0 0 1-31.56 31.608 31.75 31.61 0 0 1-31.937-31.23 31.75 31.61 0 0 1 31.177-31.983 31.75 31.61 0 0 1 32.311 30.847" style="opacity:1;fill:#ff8700;fill-opacity:1;fill-rule:nonzero;stroke:none;stroke-width:1.74624622;stroke-linecap:round;stroke-miterlimit:4;stroke-dasharray:none;stroke-opacity:1;paint-order:normal" transform="matrix(2.28571 0 0 2.28571 338.155 1512.108)"/><path d="M-73.604-611.812a25.71 25.756 0 0 1-25.555 25.755 25.71 25.756 0 0 1-25.863-25.447 25.71 25.756 0 0 1 25.246-26.06A25.71 25.756 0 0 1-73.61-612.43" style="opacity:1;fill:#fff;fill-opacity:1;fill-rule:nonzero;stroke-width:.39911315;paint-order:normal" transform="matrix(2.28571 0 0 2.28571 338.155 1512.108)"/><path style="opacity:1;fill:#000;stroke:none;stroke-width:.10973566px;stroke-linecap:butt;stroke-linejoin:miter;stroke-opacity:1" d="M-109.164-589.83c-7.751-9.919 5.467-13.061 9.341-13.32 27.813-2.884 21.928-22.337 6.015-24.543-5.193-.72-12.378-.725-18.957 2.487 6.12-.334 13.833 4.166 13.505 9.718-.13 7.939-6.672 9.219-10.692 12.447-3.6 2.647-5.22 9.481.788 13.21z" transform="matrix(2.28571 0 0 2.28571 338.155 1512.108)"/><path style="opacity:1;fill:#000;fill-opacity:1;fill-rule:nonzero;stroke:none;stroke-width:1.93667614;stroke-linecap:round;stroke-miterlimit:4;stroke-dasharray:none;stroke-opacity:1;paint-order:fill markers stroke" d="M-110.638-631.101h2.825v29.261h-2.825z" transform="matrix(2.28571 0 0 2.28571 338.155 1512.108)"/></svg>