<?xml version="1.0" encoding="UTF-8" standalone="no"?>
<svg
   viewBox="0 0 250 250"
   aria-label="PIRATEN Rhein-Erft-Kreis"
   version="1.1"
   id="svg15"
   sodipodi:docname="logo_mono.svg"
   width="250"
   height="250"
   inkscape:version="1.3.2 (091e20ef0f, 2023-11-25)"
   xmlns:inkscape="http://www.inkscape.org/namespaces/inkscape"
   xmlns:sodipodi="http://sodipodi.sourceforge.net/DTD/sodipodi-0.dtd"
   xmlns="http://www.w3.org/2000/svg"
   xmlns:svg="http://www.w3.org/2000/svg">
  <defs
     id="defs15" />
  <sodipodi:namedview
     id="namedview15"
     pagecolor="#ffffff"
     bordercolor="#999999"
     borderopacity="1"
     inkscape:showpageshadow="2"
     inkscape:pageopacity="0"
     inkscape:pagecheckerboard="true"
     inkscape:deskcolor="#d1d1d1"
     inkscape:zoom="3.5299661"
     inkscape:cx="43.059903"
     inkscape:cy="161.33299"
     inkscape:window-width="2560"
     inkscape:window-height="1371"
     inkscape:window-x="0"
     inkscape:window-y="0"
     inkscape:window-maximized="1"
     inkscape:current-layer="g15" />
  <g
     id="g15"
     transform="matrix(0.99212606,0,0,0.99211551,20,20)">
    <path
       id="path4"
       style="fill:#000000;fill-opacity:1;stroke:none;stroke-width:1.00773px;stroke-linecap:butt;stroke-linejoin:miter;stroke-opacity:1"
       d="M 147.13116 169.5753 A 76.19981 75.863811 0 0 1 106.28808 181.69625 A 76.19981 75.863811 0 0 1 102.66187 181.46002 C 94.593995 188.97878 84.956867 196.0034 73.461242 201.79417 C 92.780582 208.70159 114.23172 209.9633 140.25475 201.61502 C 144.0257 189.8118 146.13086 179.13025 147.13116 169.5753 z " />
    <path
       id="path5"
       style="fill:#000000;fill-opacity:1;stroke:none;stroke-width:1.00773px;stroke-linecap:butt;stroke-linejoin:miter;stroke-opacity:1"
       d="M 179.95799 122.57976 A 76.19981 75.863811 0 0 1 156.57859 162.34643 C 156.21692 173.16771 154.4325 184.72244 150.54672 196.70128 C 169.07283 187.90036 185.07163 173.61729 197.43152 149.33761 C 191.83611 138.69051 185.89023 129.88291 179.95799 122.57976 z " />
    <path
       id="path6"
       style="fill:#000000;fill-opacity:1;stroke:none;stroke-width:1.00773px;stroke-linecap:butt;stroke-linejoin:miter;stroke-opacity:1"
       d="M 170.36094 65.754771 A 76.19981 75.863811 0 0 1 182.01127 104.01739 L 182.03293 105.83642 A 76.19981 75.863811 0 0 1 181.7022 110.44699 C 189.05151 118.44872 195.89826 127.97035 201.53413 139.26207 C 208.6117 120.07876 210.0337 98.730999 201.8373 72.763153 C 190.28038 69.01147 179.78183 66.845786 170.36094 65.754771 z " />
    <path
       id="path7"
       style="fill:#000000;fill-opacity:1;stroke:none;stroke-width:1.00773px;stroke-linecap:butt;stroke-linejoin:miter;stroke-opacity:1"
       d="M 151.28496 14.987308 C 140.09838 20.408905 130.87608 26.257698 123.23598 32.126347 A 76.19981 75.863811 0 0 1 163.19121 56.021781 C 174.03703 56.69754 185.57515 58.805686 197.47876 63.016383 C 189.17974 44.324655 175.30396 27.991206 151.28496 14.987308 z " />
    <path
       id="path8"
       style="fill:#000000;fill-opacity:1;stroke:none;stroke-width:1.00773px;stroke-linecap:butt;stroke-linejoin:miter;stroke-opacity:1"
       d="M 108.46932 4.258183 C 97.44055 4.0237398 85.555433 5.6878639 72.506458 9.7448015 C 68.631052 21.505978 66.430319 32.162946 65.342629 41.703813 A 76.19981 75.863811 0 0 1 104.46513 29.984459 A 76.19981 75.863811 0 0 1 109.87885 30.271881 C 118.0223 22.813058 127.73454 15.861866 139.29996 10.166092 C 129.67204 6.6256432 119.49808 4.4926262 108.46932 4.258183 z " />
    <path
       id="path9"
       style="fill:#000000;fill-opacity:1;stroke:none;stroke-width:1.00773px;stroke-linecap:butt;stroke-linejoin:miter;stroke-opacity:1"
       d="M 61.753824 15.190079 C 43.153798 23.834984 27.034513 37.981099 14.4694 62.156085 C 19.970267 72.841774 25.836991 81.694365 31.702751 89.043862 A 76.19981 75.863811 0 0 1 55.464064 48.956308 C 55.956227 38.292227 57.831796 26.940474 61.753824 15.190079 z " />
    <path
       id="path10"
       style="fill:#000000;fill-opacity:1;stroke:none;stroke-width:1.00773px;stroke-linecap:butt;stroke-linejoin:miter;stroke-opacity:1"
       d="M 9.9061252 73.444305 C 2.9631823 92.676165 1.6907472 114.03107 10.069521 139.94126 C 21.708778 143.63028 32.267453 145.72496 41.730931 146.7449 A 76.19981 75.863811 0 0 1 29.639631 106.74397 A 76.19981 75.863811 0 0 1 29.915238 102.09599 C 22.518391 94.150578 15.615405 84.685176 9.9061252 73.444305 z " />
    <path
       id="path11"
       style="fill:#000000;fill-opacity:1;stroke:none;stroke-width:1.00773px;stroke-linecap:butt;stroke-linejoin:miter;stroke-opacity:1"
       d="M 15.022584 150.12507 C 23.691929 168.64939 37.890302 184.70755 62.163298 197.23478 C 73.107099 191.66107 82.128558 185.7075 89.598068 179.76107 A 76.19981 75.863811 0 0 1 49.099497 156.42277 C 38.341113 155.93648 26.882216 154.05835 15.022584 150.12507 z " />
    <path
       id="path12"
       style="opacity:1;fill:#000000;fill-opacity:1;fill-rule:nonzero;stroke:none;stroke-width:3.99142;stroke-linecap:round;stroke-miterlimit:4;stroke-dasharray:none;stroke-opacity:1;paint-order:normal"
       d="M 104.52616 33.594957 A 72.571292 72.251293 0 0 0 33.265839 106.69869 A 72.571292 72.251293 0 0 0 106.26445 178.08182 A 72.571292 72.251293 0 0 0 178.40081 105.83445 L 178.38112 104.10204 A 72.571292 72.251293 0 0 0 104.52616 33.594957 z M 104.7742 46.973881 A 58.765604 58.870747 0 0 1 164.58106 104.42293 L 164.59484 105.83445 A 58.765604 58.870747 0 0 1 106.18374 164.7029 A 58.765604 58.870747 0 0 1 47.067875 106.53923 A 58.765604 58.870747 0 0 1 104.7742 46.973881 z " />
    <path
       style="opacity:1;fill:#000000;stroke:none;stroke-width:0.250825px;stroke-linecap:butt;stroke-linejoin:miter;stroke-opacity:1"
       d="m 83.315364,156.07953 c -17.716538,-22.67196 12.495977,-29.85366 21.350816,-30.44566 63.57245,-6.59199 50.12105,-51.055902 13.74855,-56.098178 -11.86969,-1.645711 -28.292521,-1.65714 -43.330207,5.684561 13.988545,-0.763427 31.618227,9.522268 30.868517,22.21253 -0.29715,18.146247 -15.250261,21.071957 -24.438815,28.450227 -8.228556,6.05028 -11.931406,21.67082 1.801139,30.19423 z"
       id="path14" />
    <path
       style="opacity:1;fill:#000000;fill-opacity:1;fill-rule:nonzero;stroke:none;stroke-width:4.42669;stroke-linecap:round;stroke-miterlimit:4;stroke-dasharray:none;stroke-opacity:1;paint-order:fill markers stroke"
       d="m 79.946228,61.745992 h 6.457131 v 66.882158 h -6.457131 z"
       id="path15" />
  </g>
</svg>
