<?xml version="1.0" standalone="no"?>
<!DOCTYPE svg PUBLIC "-//W3C//DTD SVG 20010904//EN"
 "http://www.w3.org/TR/2001/REC-SVG-20010904/DTD/svg10.dtd">
<svg version="1.0" xmlns="http://www.w3.org/2000/svg"
 width="700.000000pt" height="700.000000pt" viewBox="0 0 700.000000 700.000000"
 preserveAspectRatio="xMidYMid meet">
<metadata>
Created by potrace 1.14, written by Peter Selinger 2001-2017
</metadata>
<g transform="translate(0.000000,700.000000) scale(0.100000,-0.100000)"
fill="#000000" stroke="none">
<path d="M3509 6326 c-2 -2 -65 -6 -139 -10 -74 -4 -153 -9 -175 -12 -141 -19
-327 -55 -460 -89 -123 -32 -163 -46 -168 -63 -90 -308 -142 -520 -162 -659
-3 -21 -8 -49 -10 -63 -2 -14 -7 -47 -10 -74 -3 -27 -8 -52 -11 -57 -11 -18
16 -8 75 26 173 102 460 210 632 240 53 9 82 14 106 19 54 11 179 20 298 20
l130 1 108 90 c199 165 428 318 641 428 l69 36 -129 39 c-153 48 -228 66 -349
86 -138 23 -152 24 -280 31 -66 3 -129 8 -141 10 -12 3 -23 3 -25 1z"/>
<path d="M2150 5954 c-275 -144 -544 -356 -754 -594 -122 -138 -300 -399 -404
-591 -34 -64 -37 -48 33 -174 61 -110 172 -293 233 -380 76 -110 176 -244 180
-240 2 2 17 50 33 107 99 341 276 643 525 895 l106 108 3 60 c7 125 17 209 41
345 21 126 24 142 34 180 5 19 11 46 13 60 7 35 65 240 77 268 5 12 9 22 7 22
-1 0 -58 -30 -127 -66z"/>
<path d="M4654 5969 c-133 -69 -289 -159 -404 -234 -102 -66 -245 -169 -254
-183 -3 -5 20 -15 52 -22 86 -19 255 -81 362 -133 249 -121 408 -235 603 -429
78 -78 93 -88 125 -89 20 0 53 -2 72 -4 19 -3 58 -7 85 -10 201 -23 489 -86
673 -149 39 -14 72 -22 72 -19 0 15 -101 209 -155 298 -197 325 -472 609 -815
841 -115 77 -292 184 -307 184 -5 0 -54 -23 -109 -51z"/>
<path d="M3378 5505 c-2 -2 -39 -6 -83 -9 -375 -30 -810 -216 -1104 -470 -46
-39 -197 -190 -236 -236 -188 -219 -364 -569 -419 -835 -1 -5 -5 -23 -9 -40
-49 -222 -54 -526 -13 -760 22 -124 71 -300 106 -380 59 -136 82 -184 128
-265 122 -214 274 -395 462 -550 52 -43 112 -91 134 -105 49 -33 234 -145 240
-145 2 0 42 -17 88 -39 183 -85 408 -145 633 -168 127 -13 347 -8 495 11 187
25 425 102 615 198 518 264 902 747 1043 1313 112 446 56 944 -150 1360 -33
66 -66 127 -74 136 -8 8 -14 19 -14 24 0 4 -11 23 -25 41 -14 18 -25 35 -25
39 0 18 -167 214 -260 305 -209 205 -496 384 -740 463 -145 47 -193 60 -263
72 -15 3 -53 9 -85 15 -104 18 -156 22 -299 25 -79 1 -144 1 -145 0z m289
-379 c373 -38 736 -212 993 -477 249 -256 391 -539 456 -909 3 -19 7 -116 9
-215 3 -145 0 -201 -15 -288 -10 -59 -21 -116 -24 -125 -71 -255 -160 -437
-301 -617 -346 -442 -876 -672 -1435 -622 -63 5 -131 17 -256 42 -22 5 -111
34 -184 60 -289 105 -596 354 -776 630 -80 123 -156 287 -198 425 -47 156 -61
260 -61 460 0 213 5 263 46 425 165 653 760 1158 1429 1211 41 4 76 7 78 9 3
3 188 -4 239 -9z"/>
<path d="M2778 4566 l-3 -159 -65 -28 -65 -28 68 -1 67 0 0 -721 0 -721 -36
-41 c-43 -51 -98 -164 -113 -232 -5 -27 -8 -86 -7 -130 6 -131 58 -240 159
-330 76 -69 91 -73 50 -12 -196 290 -126 521 203 673 134 62 265 95 469 119
72 8 166 22 210 31 44 8 91 18 105 20 14 3 50 12 80 20 30 9 62 17 70 19 26 5
144 45 180 62 201 89 328 178 422 294 153 189 166 436 36 657 -41 70 -184 216
-261 266 -157 102 -352 170 -552 191 -33 4 -71 8 -85 11 -39 6 -359 5 -420 -1
-30 -4 -95 -13 -145 -21 -88 -15 -100 -17 -157 -30 l-27 -6 -3 128 -3 129 -87
0 -88 0 -2 -159z m365 -334 c243 -134 361 -299 358 -500 -1 -81 -18 -179 -42
-237 -7 -16 -13 -35 -14 -41 -11 -47 -127 -182 -210 -244 -50 -37 -261 -170
-270 -170 -3 0 -5 286 -5 635 l0 635 65 -25 c36 -13 89 -37 118 -53z"/>
<path d="M5300 4607 c0 -2 20 -39 45 -82 81 -142 174 -373 206 -511 6 -27 12
-53 13 -59 35 -150 53 -320 50 -465 l-3 -122 71 -82 c102 -118 228 -288 305
-412 48 -77 123 -209 143 -248 12 -26 26 -44 30 -39 4 4 19 44 33 88 60 188
96 350 112 510 3 33 8 78 10 100 6 55 6 306 0 385 -4 62 -7 87 -21 198 -3 26
-17 101 -30 167 -27 132 -25 125 -48 210 -9 33 -18 67 -21 76 -22 96 -22 96
-109 124 -74 23 -360 96 -431 110 -188 36 -355 61 -355 52z"/>
<path d="M797 4283 c-20 -65 -39 -129 -41 -143 -3 -14 -10 -44 -16 -68 -5 -23
-13 -59 -16 -80 -3 -20 -9 -55 -14 -77 -5 -22 -12 -74 -15 -115 -4 -41 -9 -86
-11 -100 -6 -36 -5 -325 1 -390 17 -172 26 -233 70 -453 2 -10 21 -81 42 -159
33 -124 41 -141 63 -150 101 -39 504 -136 635 -154 28 -3 59 -8 70 -10 11 -2
47 -7 80 -10 33 -4 65 -9 70 -12 6 -4 1 7 -10 23 -63 96 -142 259 -192 395
-85 231 -125 456 -127 702 l-1 127 -55 62 c-151 170 -308 393 -429 609 l-68
120 -36 -117z"/>
<path d="M5556 3019 c-3 -8 -15 -50 -27 -94 -88 -323 -271 -641 -513 -890
l-104 -108 -7 -91 c-4 -50 -8 -104 -10 -120 -2 -16 -6 -59 -10 -95 -3 -36 -10
-84 -15 -106 -5 -22 -11 -60 -15 -85 -10 -72 -44 -217 -76 -329 -16 -57 -28
-107 -27 -112 5 -13 165 73 308 166 295 193 551 448 767 765 81 120 213 350
213 373 0 37 -249 436 -388 622 -92 124 -90 122 -96 104z"/>
<path d="M980 2265 c0 -8 104 -201 143 -265 243 -400 617 -743 1093 -1001 l71
-39 89 48 c123 67 176 97 269 155 149 93 394 265 395 278 0 4 -21 12 -47 18
-169 41 -387 128 -536 212 -83 48 -244 153 -257 168 -3 3 -32 28 -65 56 -33
27 -95 83 -138 124 -42 41 -83 76 -90 77 -6 1 -59 5 -116 8 -57 4 -112 9 -123
11 -11 3 -41 7 -67 10 -157 18 -324 56 -593 136 -16 4 -28 6 -28 4z"/>
<path d="M4595 1698 c-65 -40 -225 -121 -295 -149 -265 -104 -515 -153 -785
-154 -101 0 -111 -2 -135 -24 -166 -157 -455 -363 -675 -481 -44 -23 -84 -46
-89 -51 -12 -11 244 -87 384 -114 87 -17 201 -32 305 -40 141 -12 444 -1 565
19 14 3 68 12 120 20 112 19 272 56 386 91 l81 25 36 122 c53 183 111 440 131
583 10 70 24 180 22 182 -1 1 -24 -12 -51 -29z"/>
</g>
</svg>
